<svg width="266" height="51" viewBox="0 0 266 51" fill="none" xmlns="http://www.w3.org/2000/svg">
<g clip-path="url(#clip0_388_2057)" filter="url(#filter0_ddddd_388_2057)">
<g opacity="0.3">
<path d="M258 4.99992V3.91992H253L258 4.99992ZM258 8.47992V6.79992L245.5 3.91992H237.75L252 7.15992L258 8.47992ZM258 11.9599V10.1599L257.5 10.0399L244.5 7.15992L230.25 3.91992H222.75L236.75 7.15992L250 10.0399L258 11.9599ZM252.25 12.3199L242.25 10.0399L229.25 7.15992L215 3.91992H207.5L221.75 7.15992L234.75 10.0399L244.75 12.3199H252.25ZM237 12.3199L227.25 10.0399L214 7.15992L200 3.91992H192.25L206.5 7.15992L219.5 10.0399L229.5 12.3199H237ZM222 12.3199L212 10.0399L199 7.15992L184.75 3.91992H177.25L191.25 7.15992L204.5 10.0399L214.25 12.3199H222ZM206.75 12.3199L196.75 10.0399L183.75 7.15992L169.5 3.91992H162L176.25 7.15992L189.25 10.0399L199.25 12.3199H206.75ZM191.5 12.3199L181.75 10.0399L168.5 7.15992L154.5 3.91992H146.75L161 7.15992L174 10.0399L184 12.3199H191.5ZM176.5 12.3199L166.5 10.0399L153.5 7.15992L139.25 3.91992H131.75L145.75 7.15992L159 10.0399L168.75 12.3199H176.5ZM161.25 12.3199L151.25 10.0399L138.25 7.15992L124 3.91992H116.5L130.75 7.15992L143.75 10.0399L153.75 12.3199H161.25ZM146 12.3199L136.25 10.0399L123 7.15992L109 3.91992H101.25L115.5 7.15992L128.5 10.0399L138.5 12.3199H146ZM131 12.3199L121 10.0399L108 7.15992L93.75 3.91992H86.25L100.25 7.15992L113.5 10.0399L123.25 12.3199H131ZM115.75 12.3199L105.75 10.0399L92.75 7.15992L78.5 3.91992H71L85.25 7.15992L98.25 10.0399L108.25 12.3199H115.75ZM100.5 12.3199L90.75 10.0399L77.5 7.15992L63.5 3.91992H55.75L70 7.15992L83 10.0399L93 12.3199H100.5ZM85.5 12.3199L75.5 10.0399L62.5 7.15992L48.25 3.91992H40.75L54.75 7.15992L68 10.0399L77.75 12.3199H85.5ZM70.25 12.3199L60.25 10.0399L47.25 7.15992L33 3.91992H25.5L39.75 7.15992L52.75 10.0399L62.75 12.3199H70.25ZM55 12.3199L45.25 10.0399L32 7.15992L18 3.91992H10.25H10.5L24.5 7.15992L37.5 10.0399L47.5 12.3199H55ZM40 12.3199L30 10.0399L17 7.15992L8 5.11992V6.79992L9.25 7.15992L22.5 10.0399L32.25 12.3199H40ZM24.75 12.3199L14.75 10.0399L8 8.47992V10.2799L17.25 12.3199H24.75Z" fill="#E1D7D4"/>
</g>
<path d="M8 3.92V2H258V3.92H8ZM258 6.56V4.76L254 3.92H246.25L258 6.56Z" fill="#E1D7D4"/>
<path d="M8 14.2509V12.3309H258V14.2509H8ZM258 16.8909V15.0909L254 14.2509H246.25L258 16.8909Z" fill="#E1D7D4"/>
<path d="M258 9.92005V8.24005L253 7.16005L238.75 3.92005H231.25L245.5 7.16005L258 9.92005ZM258 12.32V11.72L251 10.04L237.75 7.16005L223.5 3.92005H216L230.25 7.16005L243.25 10.04L253.25 12.32H258ZM215 7.16005L200.75 3.92005H208.5L222.75 7.16005L235.75 10.04L245.75 12.32H238L228.25 10.04L215 7.16005ZM200 7.16005L185.75 3.92005H193.25L207.5 7.16005L220.5 10.04L230.5 12.32H223L213 10.04L200 7.16005ZM184.75 7.16005L170.5 3.92005H178L192.25 7.16005L205.5 10.04L215.25 12.32H207.75L197.75 10.04L184.75 7.16005ZM169.5 7.16005L155.25 3.92005H163L177.25 7.16005L190.25 10.04L200.25 12.32H192.5L182.75 10.04L169.5 7.16005ZM154.5 7.16005L140.25 3.92005H147.75L162 7.16005L175 10.04L185 12.32H177.5L167.5 10.04L154.5 7.16005ZM139.25 7.16005L125 3.92005H132.5L146.75 7.16005L160 10.04L169.75 12.32H162.25L152.25 10.04L139.25 7.16005ZM124 7.16005L109.75 3.92005H117.5L131.75 7.16005L144.75 10.04L154.75 12.32H147L137.25 10.04L124 7.16005ZM108.75 7.16005L94.75 3.92005H102.25L116.5 7.16005L129.5 10.04L139.5 12.32H132L122 10.04L108.75 7.16005ZM93.75 7.16005L79.5 3.92005H87L101.25 7.16005L114.5 10.04L124.25 12.32H116.75L106.75 10.04L93.75 7.16005ZM78.5 7.16005L64.25 3.92005H72L86 7.16005L99.25 10.04L109.25 12.32H101.5L91.75 10.04L78.5 7.16005ZM63.25 7.16005L49.25 3.92005H56.75L71 7.16005L84 10.04L94 12.32H86.5L76.5 10.04L63.25 7.16005ZM48.25 7.16005L34 3.92005H41.5L55.75 7.16005L69 10.04L78.75 12.32H71.25L61.25 10.04L48.25 7.16005ZM33 7.16005L18.75 3.92005H26.5L40.5 7.16005L53.75 10.04L63.75 12.32H56L46.25 10.04L33 7.16005ZM25.5 7.16005L38.5 10.04L48.5 12.32H41L31 10.04L17.75 7.16005L8 4.88005V3.80005H10.5L11.25 3.92005L25.5 7.16005ZM23.5 10.04L33.25 12.32H25.75L15.75 10.04L8 8.36005V6.56005L10.25 7.16005L23.5 10.04ZM18 12.32H10.5L8 11.72V10.04H8.25L18 12.32Z" fill="#E1D7D4"/>
</g>
<defs>
<filter id="filter0_ddddd_388_2057" x="0" y="0" width="266" height="51" filterUnits="userSpaceOnUse" color-interpolation-filters="sRGB">
<feFlood flood-opacity="0" result="BackgroundImageFix"/>
<feColorMatrix in="SourceAlpha" type="matrix" values="0 0 0 0 0 0 0 0 0 0 0 0 0 0 0 0 0 0 127 0" result="hardAlpha"/>
<feOffset dy="1"/>
<feGaussianBlur stdDeviation="1.5"/>
<feColorMatrix type="matrix" values="0 0 0 0 0 0 0 0 0 0 0 0 0 0 0 0 0 0 0.43 0"/>
<feBlend mode="normal" in2="BackgroundImageFix" result="effect1_dropShadow_388_2057"/>
<feColorMatrix in="SourceAlpha" type="matrix" values="0 0 0 0 0 0 0 0 0 0 0 0 0 0 0 0 0 0 127 0" result="hardAlpha"/>
<feOffset dy="5"/>
<feGaussianBlur stdDeviation="2.5"/>
<feColorMatrix type="matrix" values="0 0 0 0 0 0 0 0 0 0 0 0 0 0 0 0 0 0 0.37 0"/>
<feBlend mode="normal" in2="effect1_dropShadow_388_2057" result="effect2_dropShadow_388_2057"/>
<feColorMatrix in="SourceAlpha" type="matrix" values="0 0 0 0 0 0 0 0 0 0 0 0 0 0 0 0 0 0 127 0" result="hardAlpha"/>
<feOffset dy="10"/>
<feGaussianBlur stdDeviation="3"/>
<feColorMatrix type="matrix" values="0 0 0 0 0 0 0 0 0 0 0 0 0 0 0 0 0 0 0.22 0"/>
<feBlend mode="normal" in2="effect2_dropShadow_388_2057" result="effect3_dropShadow_388_2057"/>
<feColorMatrix in="SourceAlpha" type="matrix" values="0 0 0 0 0 0 0 0 0 0 0 0 0 0 0 0 0 0 127 0" result="hardAlpha"/>
<feOffset dy="18"/>
<feGaussianBlur stdDeviation="3.5"/>
<feColorMatrix type="matrix" values="0 0 0 0 0 0 0 0 0 0 0 0 0 0 0 0 0 0 0.06 0"/>
<feBlend mode="normal" in2="effect3_dropShadow_388_2057" result="effect4_dropShadow_388_2057"/>
<feColorMatrix in="SourceAlpha" type="matrix" values="0 0 0 0 0 0 0 0 0 0 0 0 0 0 0 0 0 0 127 0" result="hardAlpha"/>
<feOffset dy="29"/>
<feGaussianBlur stdDeviation="4"/>
<feColorMatrix type="matrix" values="0 0 0 0 0 0 0 0 0 0 0 0 0 0 0 0 0 0 0.01 0"/>
<feBlend mode="normal" in2="effect4_dropShadow_388_2057" result="effect5_dropShadow_388_2057"/>
<feBlend mode="normal" in="SourceGraphic" in2="effect5_dropShadow_388_2057" result="shape"/>
</filter>
<clipPath id="clip0_388_2057">
<rect width="250" height="12" fill="white" transform="translate(8 2)"/>
</clipPath>
</defs>
</svg>
